<mxfile host="Electron" modified="2024-02-09T14:57:08.969Z" agent="Mozilla/5.0 (Windows NT 10.0; Win64; x64) AppleWebKit/537.36 (KHTML, like Gecko) draw.io/22.1.16 Chrome/120.0.6099.109 Electron/28.1.0 Safari/537.36" etag="R8IAcYm5BMP_W_BpSKTU" version="22.1.16" type="device">
  <diagram name="PÃ¡gina-1" id="O7MBfEGZBoNdr1yW5oVu">
    <mxGraphModel dx="2507" dy="1150" grid="1" gridSize="10" guides="1" tooltips="1" connect="1" arrows="1" fold="1" page="1" pageScale="1" pageWidth="827" pageHeight="1169" math="0" shadow="0">
      <root>
        <mxCell id="0" />
        <mxCell id="1" parent="0" />
        <mxCell id="yPSDT-vUB1oBA1HIcaDu-102" value="" style="group;fillColor=#232136;strokeColor=#232136;strokeWidth=30;fontSize=14;" parent="1" vertex="1" connectable="0">
          <mxGeometry x="-210" y="80" width="1338.08" height="550.5" as="geometry" />
        </mxCell>
        <mxCell id="yPSDT-vUB1oBA1HIcaDu-98" value="" style="group" parent="yPSDT-vUB1oBA1HIcaDu-102" vertex="1" connectable="0">
          <mxGeometry x="58.63736209855354" y="36.37426035502959" width="536.1730681539591" height="185.67159763313612" as="geometry" />
        </mxCell>
        <mxCell id="24-RcjtqaWTgur0IXHR3-19" value="Start" style="ellipse;whiteSpace=wrap;html=1;aspect=fixed;strokeColor=#DB918D;fontColor=#FFFFFF;fillColor=none;strokeWidth=3;container=0;fontSize=14;" parent="yPSDT-vUB1oBA1HIcaDu-98" vertex="1">
          <mxGeometry y="60.80473372781066" width="51.256435400833524" height="51.256435400833524" as="geometry" />
        </mxCell>
        <mxCell id="24-RcjtqaWTgur0IXHR3-20" value="Wait for POST&lt;br style=&quot;font-size: 14px;&quot;&gt;Request on endpoints" style="rounded=1;whiteSpace=wrap;html=1;strokeColor=#DB918D;fontColor=#FFFFFF;fillColor=none;strokeWidth=3;container=0;fontSize=14;" parent="yPSDT-vUB1oBA1HIcaDu-98" vertex="1">
          <mxGeometry x="85.11643662662414" y="66.23372781065089" width="128.99194532973763" height="43.4319526627219" as="geometry" />
        </mxCell>
        <mxCell id="24-RcjtqaWTgur0IXHR3-24" style="edgeStyle=orthogonalEdgeStyle;shape=connector;curved=0;rounded=1;orthogonalLoop=1;jettySize=auto;html=1;labelBackgroundColor=default;strokeColor=#DB918D;strokeWidth=3;align=center;verticalAlign=middle;fontFamily=Helvetica;fontSize=12;fontColor=#FFFFFF;endArrow=openThin;endFill=0;fillColor=#FAE5C7;" parent="yPSDT-vUB1oBA1HIcaDu-98" source="24-RcjtqaWTgur0IXHR3-22" target="24-RcjtqaWTgur0IXHR3-20" edge="1">
          <mxGeometry relative="1" as="geometry" />
        </mxCell>
        <mxCell id="24-RcjtqaWTgur0IXHR3-22" value="Build connection to docker API" style="rounded=1;whiteSpace=wrap;html=1;strokeColor=#DB918D;fontColor=#FFFFFF;fillColor=none;strokeWidth=3;container=0;fontSize=14;" parent="yPSDT-vUB1oBA1HIcaDu-98" vertex="1">
          <mxGeometry x="85.11643662662414" width="128.99194532973763" height="43.4319526627219" as="geometry" />
        </mxCell>
        <mxCell id="24-RcjtqaWTgur0IXHR3-23" style="edgeStyle=orthogonalEdgeStyle;shape=connector;curved=0;rounded=1;orthogonalLoop=1;jettySize=auto;html=1;exitX=0.5;exitY=0;exitDx=0;exitDy=0;labelBackgroundColor=default;strokeColor=#DB918D;strokeWidth=3;align=center;verticalAlign=middle;fontFamily=Helvetica;fontSize=12;fontColor=#FFFFFF;endArrow=openThin;endFill=0;fillColor=#FAE5C7;entryX=0;entryY=0.5;entryDx=0;entryDy=0;" parent="yPSDT-vUB1oBA1HIcaDu-98" source="24-RcjtqaWTgur0IXHR3-19" target="24-RcjtqaWTgur0IXHR3-22" edge="1">
          <mxGeometry relative="1" as="geometry" />
        </mxCell>
        <mxCell id="24-RcjtqaWTgur0IXHR3-25" value="Order to &lt;br style=&quot;font-size: 14px;&quot;&gt;process" style="rhombus;whiteSpace=wrap;html=1;rounded=0;strokeColor=#DB918D;strokeWidth=3;align=center;verticalAlign=middle;fontFamily=Helvetica;fontSize=14;fontColor=#FFFFFF;fillColor=none;spacingTop=-1;container=0;" parent="yPSDT-vUB1oBA1HIcaDu-98" vertex="1">
          <mxGeometry x="243.5705810247609" y="55.37573964497042" width="98.60713042412353" height="65.14792899408285" as="geometry" />
        </mxCell>
        <mxCell id="24-RcjtqaWTgur0IXHR3-26" style="edgeStyle=orthogonalEdgeStyle;shape=connector;curved=0;rounded=1;orthogonalLoop=1;jettySize=auto;html=1;labelBackgroundColor=default;strokeColor=#DB918D;strokeWidth=3;align=center;verticalAlign=middle;fontFamily=Helvetica;fontSize=12;fontColor=#FFFFFF;endArrow=openThin;endFill=0;fillColor=#FAE5C7;" parent="yPSDT-vUB1oBA1HIcaDu-98" source="24-RcjtqaWTgur0IXHR3-20" target="24-RcjtqaWTgur0IXHR3-25" edge="1">
          <mxGeometry relative="1" as="geometry" />
        </mxCell>
        <mxCell id="24-RcjtqaWTgur0IXHR3-39" style="edgeStyle=orthogonalEdgeStyle;shape=connector;curved=0;rounded=1;orthogonalLoop=1;jettySize=auto;html=1;entryX=0.5;entryY=1;entryDx=0;entryDy=0;labelBackgroundColor=default;strokeColor=#DB918D;strokeWidth=3;align=center;verticalAlign=middle;fontFamily=Helvetica;fontSize=12;fontColor=#FFFFFF;endArrow=openThin;endFill=0;fillColor=#FAE5C7;exitX=1;exitY=0.5;exitDx=0;exitDy=0;" parent="yPSDT-vUB1oBA1HIcaDu-98" source="24-RcjtqaWTgur0IXHR3-27" target="24-RcjtqaWTgur0IXHR3-20" edge="1">
          <mxGeometry relative="1" as="geometry">
            <Array as="points">
              <mxPoint x="536.1730681539591" y="89.03550295857988" />
              <mxPoint x="536.1730681539591" y="185.67159763313612" />
              <mxPoint x="149.69954523167436" y="185.67159763313612" />
            </Array>
          </mxGeometry>
        </mxCell>
        <mxCell id="24-RcjtqaWTgur0IXHR3-27" value="Process &lt;br style=&quot;font-size: 14px;&quot;&gt;RestartOrder" style="rounded=1;whiteSpace=wrap;html=1;strokeColor=#DB918D;fontColor=#FFFFFF;fillColor=none;strokeWidth=3;container=0;fontSize=14;" parent="yPSDT-vUB1oBA1HIcaDu-98" vertex="1">
          <mxGeometry x="382.40376195145853" y="67.31952662721895" width="123.01544496200046" height="42.346153846153854" as="geometry" />
        </mxCell>
        <mxCell id="24-RcjtqaWTgur0IXHR3-33" style="edgeStyle=orthogonalEdgeStyle;shape=connector;curved=0;rounded=1;orthogonalLoop=1;jettySize=auto;html=1;exitX=1;exitY=0.5;exitDx=0;exitDy=0;entryX=0;entryY=0.5;entryDx=0;entryDy=0;labelBackgroundColor=default;strokeColor=#DB918D;strokeWidth=3;align=center;verticalAlign=middle;fontFamily=Helvetica;fontSize=12;fontColor=#FFFFFF;endArrow=openThin;endFill=0;fillColor=#FAE5C7;" parent="yPSDT-vUB1oBA1HIcaDu-98" source="24-RcjtqaWTgur0IXHR3-25" target="24-RcjtqaWTgur0IXHR3-27" edge="1">
          <mxGeometry relative="1" as="geometry" />
        </mxCell>
        <mxCell id="24-RcjtqaWTgur0IXHR3-38" style="edgeStyle=orthogonalEdgeStyle;shape=connector;curved=0;rounded=1;orthogonalLoop=1;jettySize=auto;html=1;entryX=0.5;entryY=1;entryDx=0;entryDy=0;labelBackgroundColor=default;strokeColor=#DB918D;strokeWidth=3;align=center;verticalAlign=middle;fontFamily=Helvetica;fontSize=12;fontColor=#FFFFFF;endArrow=openThin;endFill=0;fillColor=#FAE5C7;" parent="yPSDT-vUB1oBA1HIcaDu-98" source="24-RcjtqaWTgur0IXHR3-29" target="24-RcjtqaWTgur0IXHR3-20" edge="1">
          <mxGeometry relative="1" as="geometry">
            <Array as="points">
              <mxPoint x="536.1730681539591" y="27.144970414201186" />
              <mxPoint x="536.1730681539591" y="185.67159763313612" />
              <mxPoint x="149.69954523167436" y="185.67159763313612" />
            </Array>
          </mxGeometry>
        </mxCell>
        <mxCell id="24-RcjtqaWTgur0IXHR3-29" value="Process ReconfigurationOrder" style="rounded=1;whiteSpace=wrap;html=1;strokeColor=#DB918D;fontColor=#FFFFFF;fillColor=none;strokeWidth=3;container=0;fontSize=14;" parent="yPSDT-vUB1oBA1HIcaDu-98" vertex="1">
          <mxGeometry x="382.40376195145853" y="8.68639053254438" width="123.01544496200046" height="42.346153846153854" as="geometry" />
        </mxCell>
        <mxCell id="24-RcjtqaWTgur0IXHR3-31" style="edgeStyle=orthogonalEdgeStyle;shape=connector;curved=0;rounded=1;orthogonalLoop=1;jettySize=auto;html=1;labelBackgroundColor=default;strokeColor=#DB918D;strokeWidth=3;align=center;verticalAlign=middle;fontFamily=Helvetica;fontSize=12;fontColor=#FFFFFF;endArrow=openThin;endFill=0;fillColor=#FAE5C7;exitX=0.5;exitY=0;exitDx=0;exitDy=0;entryX=0;entryY=0.5;entryDx=0;entryDy=0;" parent="yPSDT-vUB1oBA1HIcaDu-98" source="24-RcjtqaWTgur0IXHR3-25" target="24-RcjtqaWTgur0IXHR3-29" edge="1">
          <mxGeometry relative="1" as="geometry" />
        </mxCell>
        <mxCell id="24-RcjtqaWTgur0IXHR3-40" style="edgeStyle=orthogonalEdgeStyle;shape=connector;curved=0;rounded=1;orthogonalLoop=1;jettySize=auto;html=1;labelBackgroundColor=default;strokeColor=#DB918D;strokeWidth=3;align=center;verticalAlign=middle;fontFamily=Helvetica;fontSize=12;fontColor=#FFFFFF;endArrow=openThin;endFill=0;fillColor=#FAE5C7;" parent="yPSDT-vUB1oBA1HIcaDu-98" source="24-RcjtqaWTgur0IXHR3-30" target="24-RcjtqaWTgur0IXHR3-20" edge="1">
          <mxGeometry relative="1" as="geometry">
            <Array as="points">
              <mxPoint x="536.1730681539591" y="147.66863905325445" />
              <mxPoint x="536.1730681539591" y="185.67159763313612" />
              <mxPoint x="149.69954523167436" y="185.67159763313612" />
            </Array>
          </mxGeometry>
        </mxCell>
        <mxCell id="24-RcjtqaWTgur0IXHR3-30" value="Process AdditionOrder" style="rounded=1;whiteSpace=wrap;html=1;strokeColor=#DB918D;fontColor=#FFFFFF;fillColor=none;strokeWidth=3;container=0;fontSize=14;" parent="yPSDT-vUB1oBA1HIcaDu-98" vertex="1">
          <mxGeometry x="382.40376195145853" y="120.52366863905327" width="123.01544496200046" height="42.346153846153854" as="geometry" />
        </mxCell>
        <mxCell id="24-RcjtqaWTgur0IXHR3-34" style="edgeStyle=orthogonalEdgeStyle;shape=connector;curved=0;rounded=1;orthogonalLoop=1;jettySize=auto;html=1;exitX=0.5;exitY=1;exitDx=0;exitDy=0;entryX=0;entryY=0.5;entryDx=0;entryDy=0;labelBackgroundColor=default;strokeColor=#DB918D;strokeWidth=3;align=center;verticalAlign=middle;fontFamily=Helvetica;fontSize=12;fontColor=#FFFFFF;endArrow=openThin;endFill=0;fillColor=#FAE5C7;" parent="yPSDT-vUB1oBA1HIcaDu-98" source="24-RcjtqaWTgur0IXHR3-25" target="24-RcjtqaWTgur0IXHR3-30" edge="1">
          <mxGeometry relative="1" as="geometry" />
        </mxCell>
        <mxCell id="24-RcjtqaWTgur0IXHR3-35" value="Restart" style="text;html=1;strokeColor=none;fillColor=none;align=center;verticalAlign=middle;whiteSpace=wrap;rounded=0;fontSize=12;fontFamily=Helvetica;fontColor=#FFFFFF;container=0;" parent="yPSDT-vUB1oBA1HIcaDu-98" vertex="1">
          <mxGeometry x="338.0464427555771" y="66.23372781065089" width="37.16091566560431" height="21.71597633136095" as="geometry" />
        </mxCell>
        <mxCell id="24-RcjtqaWTgur0IXHR3-36" value="Reconfig" style="text;html=1;strokeColor=none;fillColor=none;align=center;verticalAlign=middle;whiteSpace=wrap;rounded=0;fontSize=12;fontFamily=Helvetica;fontColor=#FFFFFF;container=0;" parent="yPSDT-vUB1oBA1HIcaDu-98" vertex="1">
          <mxGeometry x="325.90891885265984" y="9.772189349112427" width="37.16091566560431" height="21.71597633136095" as="geometry" />
        </mxCell>
        <mxCell id="24-RcjtqaWTgur0IXHR3-37" value="Addition" style="text;html=1;strokeColor=none;fillColor=none;align=center;verticalAlign=middle;whiteSpace=wrap;rounded=0;fontSize=12;fontFamily=Helvetica;fontColor=#FFFFFF;container=0;" parent="yPSDT-vUB1oBA1HIcaDu-98" vertex="1">
          <mxGeometry x="292.94077960284375" y="122.69526627218936" width="106.8696678107379" height="21.71597633136095" as="geometry" />
        </mxCell>
        <mxCell id="yPSDT-vUB1oBA1HIcaDu-99" value="" style="group" parent="yPSDT-vUB1oBA1HIcaDu-102" vertex="1" connectable="0">
          <mxGeometry x="691.5825802892865" width="642.9094692326549" height="258.42011834319527" as="geometry" />
        </mxCell>
        <mxCell id="yPSDT-vUB1oBA1HIcaDu-2" value="Deserialize AdditionOrder" style="rounded=1;whiteSpace=wrap;html=1;strokeColor=#DB918D;fontColor=#FFFFFF;fillColor=none;strokeWidth=3;container=0;" parent="yPSDT-vUB1oBA1HIcaDu-99" vertex="1">
          <mxGeometry x="87.13594018141698" y="8.68639053254438" width="123.01544496200046" height="42.346153846153854" as="geometry" />
        </mxCell>
        <mxCell id="yPSDT-vUB1oBA1HIcaDu-3" style="edgeStyle=orthogonalEdgeStyle;shape=connector;curved=0;rounded=1;orthogonalLoop=1;jettySize=auto;html=1;labelBackgroundColor=default;strokeColor=#DB918D;strokeWidth=3;align=center;verticalAlign=middle;fontFamily=Helvetica;fontSize=12;fontColor=#FFFFFF;endArrow=openThin;endFill=0;fillColor=#FAE5C7;" parent="yPSDT-vUB1oBA1HIcaDu-99" source="yPSDT-vUB1oBA1HIcaDu-4" target="yPSDT-vUB1oBA1HIcaDu-2" edge="1">
          <mxGeometry relative="1" as="geometry" />
        </mxCell>
        <mxCell id="yPSDT-vUB1oBA1HIcaDu-4" value="Start" style="ellipse;whiteSpace=wrap;html=1;aspect=fixed;strokeColor=#DB918D;fontColor=#FFFFFF;fillColor=none;strokeWidth=3;container=0;" parent="yPSDT-vUB1oBA1HIcaDu-99" vertex="1">
          <mxGeometry y="2.7144970414201186" width="51.256435400833524" height="51.256435400833524" as="geometry" />
        </mxCell>
        <mxCell id="yPSDT-vUB1oBA1HIcaDu-6" value="Build ContainerCreationOptions &lt;br&gt;(Use image, env_vars and args)" style="rounded=1;whiteSpace=wrap;html=1;strokeColor=#DB918D;fontColor=#FFFFFF;fillColor=none;strokeWidth=3;container=0;" parent="yPSDT-vUB1oBA1HIcaDu-99" vertex="1">
          <mxGeometry x="65.89527335131154" y="96.63609467455622" width="165.48652733513111" height="76.00591715976333" as="geometry" />
        </mxCell>
        <mxCell id="yPSDT-vUB1oBA1HIcaDu-1" style="edgeStyle=orthogonalEdgeStyle;shape=connector;curved=0;rounded=1;orthogonalLoop=1;jettySize=auto;html=1;labelBackgroundColor=default;strokeColor=#DB918D;strokeWidth=3;align=center;verticalAlign=middle;fontFamily=Helvetica;fontSize=12;fontColor=#FFFFFF;endArrow=openThin;endFill=0;fillColor=#FAE5C7;" parent="yPSDT-vUB1oBA1HIcaDu-99" source="yPSDT-vUB1oBA1HIcaDu-2" target="yPSDT-vUB1oBA1HIcaDu-6" edge="1">
          <mxGeometry relative="1" as="geometry" />
        </mxCell>
        <mxCell id="yPSDT-vUB1oBA1HIcaDu-9" value="Creation &lt;br&gt;successful?" style="rhombus;whiteSpace=wrap;html=1;rounded=0;strokeColor=#DB918D;strokeWidth=3;align=center;verticalAlign=middle;fontFamily=Helvetica;fontSize=11;fontColor=#FFFFFF;fillColor=none;spacingTop=-1;container=0;" parent="yPSDT-vUB1oBA1HIcaDu-99" vertex="1">
          <mxGeometry x="255.42106888943368" y="105.3224852071006" width="109.96555650894824" height="58.63313609467456" as="geometry" />
        </mxCell>
        <mxCell id="yPSDT-vUB1oBA1HIcaDu-5" style="edgeStyle=orthogonalEdgeStyle;shape=connector;curved=0;rounded=1;orthogonalLoop=1;jettySize=auto;html=1;labelBackgroundColor=default;strokeColor=#DB918D;strokeWidth=3;align=center;verticalAlign=middle;fontFamily=Helvetica;fontSize=12;fontColor=#FFFFFF;endArrow=openThin;endFill=0;fillColor=#FAE5C7;" parent="yPSDT-vUB1oBA1HIcaDu-99" source="yPSDT-vUB1oBA1HIcaDu-6" target="yPSDT-vUB1oBA1HIcaDu-9" edge="1">
          <mxGeometry relative="1" as="geometry" />
        </mxCell>
        <mxCell id="yPSDT-vUB1oBA1HIcaDu-11" value="Return &lt;br&gt;400 Bad Request&amp;nbsp;" style="rounded=1;whiteSpace=wrap;html=1;strokeColor=#DB918D;fontColor=#FFFFFF;fillColor=none;strokeWidth=3;container=0;" parent="yPSDT-vUB1oBA1HIcaDu-99" vertex="1">
          <mxGeometry x="258.77323976464817" y="209.55917159763317" width="103.25096347143905" height="43.4319526627219" as="geometry" />
        </mxCell>
        <mxCell id="yPSDT-vUB1oBA1HIcaDu-7" style="edgeStyle=orthogonalEdgeStyle;shape=connector;curved=0;rounded=1;orthogonalLoop=1;jettySize=auto;html=1;exitX=0.5;exitY=1;exitDx=0;exitDy=0;labelBackgroundColor=default;strokeColor=#DB918D;strokeWidth=3;align=center;verticalAlign=middle;fontFamily=Helvetica;fontSize=12;fontColor=#FFFFFF;endArrow=openThin;endFill=0;fillColor=#FAE5C7;" parent="yPSDT-vUB1oBA1HIcaDu-99" source="yPSDT-vUB1oBA1HIcaDu-9" target="yPSDT-vUB1oBA1HIcaDu-11" edge="1">
          <mxGeometry relative="1" as="geometry" />
        </mxCell>
        <mxCell id="yPSDT-vUB1oBA1HIcaDu-12" value="End" style="ellipse;whiteSpace=wrap;html=1;aspect=fixed;strokeColor=#DB918D;fontColor=#FFFFFF;fillColor=none;strokeWidth=3;container=0;" parent="yPSDT-vUB1oBA1HIcaDu-99" vertex="1">
          <mxGeometry x="441.8919808776659" y="204.13017751479293" width="51.256435400833524" height="51.256435400833524" as="geometry" />
        </mxCell>
        <mxCell id="yPSDT-vUB1oBA1HIcaDu-10" value="" style="edgeStyle=orthogonalEdgeStyle;shape=connector;curved=0;rounded=1;orthogonalLoop=1;jettySize=auto;html=1;labelBackgroundColor=default;strokeColor=#DB918D;strokeWidth=3;align=center;verticalAlign=middle;fontFamily=Helvetica;fontSize=12;fontColor=#FFFFFF;endArrow=openThin;endFill=0;fillColor=#FAE5C7;" parent="yPSDT-vUB1oBA1HIcaDu-99" source="yPSDT-vUB1oBA1HIcaDu-11" target="yPSDT-vUB1oBA1HIcaDu-12" edge="1">
          <mxGeometry relative="1" as="geometry" />
        </mxCell>
        <mxCell id="yPSDT-vUB1oBA1HIcaDu-14" value="Build&amp;nbsp;&lt;br&gt;ContainerConnectionOpts&lt;br&gt;(use network name)" style="rounded=1;whiteSpace=wrap;html=1;strokeColor=#DB918D;fontColor=#FFFFFF;fillColor=none;strokeWidth=3;container=0;" parent="yPSDT-vUB1oBA1HIcaDu-99" vertex="1">
          <mxGeometry x="236.78422897769056" y="3.2573964497041423" width="147.23923633243436" height="53.20414201183432" as="geometry" />
        </mxCell>
        <mxCell id="yPSDT-vUB1oBA1HIcaDu-8" style="edgeStyle=orthogonalEdgeStyle;shape=connector;curved=0;rounded=1;orthogonalLoop=1;jettySize=auto;html=1;labelBackgroundColor=default;strokeColor=#DB918D;strokeWidth=3;align=center;verticalAlign=middle;fontFamily=Helvetica;fontSize=12;fontColor=#FFFFFF;endArrow=openThin;endFill=0;fillColor=#FAE5C7;" parent="yPSDT-vUB1oBA1HIcaDu-99" source="yPSDT-vUB1oBA1HIcaDu-9" target="yPSDT-vUB1oBA1HIcaDu-14" edge="1">
          <mxGeometry relative="1" as="geometry" />
        </mxCell>
        <mxCell id="yPSDT-vUB1oBA1HIcaDu-17" value="Connection&lt;br&gt;successful?" style="rhombus;whiteSpace=wrap;html=1;rounded=0;strokeColor=#DB918D;strokeWidth=3;align=center;verticalAlign=middle;fontFamily=Helvetica;fontSize=11;fontColor=#FFFFFF;fillColor=none;spacingTop=-1;container=0;" parent="yPSDT-vUB1oBA1HIcaDu-99" vertex="1">
          <mxGeometry x="412.5425459671487" y="3.2573964497041423" width="109.96555650894824" height="54.832840236686394" as="geometry" />
        </mxCell>
        <mxCell id="yPSDT-vUB1oBA1HIcaDu-13" style="edgeStyle=orthogonalEdgeStyle;shape=connector;curved=0;rounded=1;orthogonalLoop=1;jettySize=auto;html=1;labelBackgroundColor=default;strokeColor=#DB918D;strokeWidth=3;align=center;verticalAlign=middle;fontFamily=Helvetica;fontSize=12;fontColor=#FFFFFF;endArrow=openThin;endFill=0;fillColor=#FAE5C7;" parent="yPSDT-vUB1oBA1HIcaDu-99" source="yPSDT-vUB1oBA1HIcaDu-14" target="yPSDT-vUB1oBA1HIcaDu-17" edge="1">
          <mxGeometry relative="1" as="geometry" />
        </mxCell>
        <mxCell id="yPSDT-vUB1oBA1HIcaDu-18" style="edgeStyle=orthogonalEdgeStyle;shape=connector;curved=0;rounded=1;orthogonalLoop=1;jettySize=auto;html=1;exitX=0.5;exitY=1;exitDx=0;exitDy=0;entryX=1;entryY=0.5;entryDx=0;entryDy=0;labelBackgroundColor=default;strokeColor=#DB918D;strokeWidth=3;align=center;verticalAlign=middle;fontFamily=Helvetica;fontSize=12;fontColor=#FFFFFF;endArrow=openThin;endFill=0;fillColor=#FAE5C7;" parent="yPSDT-vUB1oBA1HIcaDu-99" source="yPSDT-vUB1oBA1HIcaDu-19" target="yPSDT-vUB1oBA1HIcaDu-12" edge="1">
          <mxGeometry relative="1" as="geometry" />
        </mxCell>
        <mxCell id="yPSDT-vUB1oBA1HIcaDu-19" value="Return &lt;br&gt;400 Bad Request&amp;nbsp;" style="rounded=1;whiteSpace=wrap;html=1;strokeColor=#DB918D;fontColor=#FFFFFF;fillColor=none;strokeWidth=3;container=0;" parent="yPSDT-vUB1oBA1HIcaDu-99" vertex="1">
          <mxGeometry x="539.6585057612159" y="8.143491124260356" width="103.25096347143905" height="43.4319526627219" as="geometry" />
        </mxCell>
        <mxCell id="yPSDT-vUB1oBA1HIcaDu-15" value="" style="edgeStyle=orthogonalEdgeStyle;shape=connector;curved=0;rounded=1;orthogonalLoop=1;jettySize=auto;html=1;labelBackgroundColor=default;strokeColor=#DB918D;strokeWidth=3;align=center;verticalAlign=middle;fontFamily=Helvetica;fontSize=12;fontColor=#FFFFFF;endArrow=openThin;endFill=0;fillColor=#FAE5C7;" parent="yPSDT-vUB1oBA1HIcaDu-99" source="yPSDT-vUB1oBA1HIcaDu-17" target="yPSDT-vUB1oBA1HIcaDu-19" edge="1">
          <mxGeometry relative="1" as="geometry" />
        </mxCell>
        <mxCell id="yPSDT-vUB1oBA1HIcaDu-21" value="Start Container, add id to register" style="rounded=1;whiteSpace=wrap;html=1;strokeColor=#DB918D;fontColor=#FFFFFF;fillColor=none;strokeWidth=3;container=0;" parent="yPSDT-vUB1oBA1HIcaDu-99" vertex="1">
          <mxGeometry x="415.89471684236327" y="77.09171597633137" width="103.25096347143905" height="43.4319526627219" as="geometry" />
        </mxCell>
        <mxCell id="yPSDT-vUB1oBA1HIcaDu-16" style="edgeStyle=orthogonalEdgeStyle;shape=connector;curved=0;rounded=1;orthogonalLoop=1;jettySize=auto;html=1;exitX=0.5;exitY=1;exitDx=0;exitDy=0;entryX=0.5;entryY=0;entryDx=0;entryDy=0;labelBackgroundColor=default;strokeColor=#DB918D;strokeWidth=3;align=center;verticalAlign=middle;fontFamily=Helvetica;fontSize=12;fontColor=#FFFFFF;endArrow=openThin;endFill=0;fillColor=#FAE5C7;" parent="yPSDT-vUB1oBA1HIcaDu-99" source="yPSDT-vUB1oBA1HIcaDu-17" target="yPSDT-vUB1oBA1HIcaDu-21" edge="1">
          <mxGeometry relative="1" as="geometry" />
        </mxCell>
        <mxCell id="yPSDT-vUB1oBA1HIcaDu-22" value="" style="edgeStyle=orthogonalEdgeStyle;shape=connector;curved=0;rounded=1;orthogonalLoop=1;jettySize=auto;html=1;labelBackgroundColor=default;strokeColor=#DB918D;strokeWidth=3;align=center;verticalAlign=middle;fontFamily=Helvetica;fontSize=12;fontColor=#FFFFFF;endArrow=openThin;endFill=0;fillColor=#FAE5C7;" parent="yPSDT-vUB1oBA1HIcaDu-99" source="yPSDT-vUB1oBA1HIcaDu-23" target="yPSDT-vUB1oBA1HIcaDu-12" edge="1">
          <mxGeometry relative="1" as="geometry">
            <Array as="points">
              <mxPoint x="467.89949620004893" y="193.27218934911244" />
              <mxPoint x="467.89949620004893" y="193.27218934911244" />
            </Array>
          </mxGeometry>
        </mxCell>
        <mxCell id="yPSDT-vUB1oBA1HIcaDu-23" value="Return &lt;br&gt;200 OK&amp;nbsp;" style="rounded=1;whiteSpace=wrap;html=1;strokeColor=#DB918D;fontColor=#FFFFFF;fillColor=none;strokeWidth=3;container=0;" parent="yPSDT-vUB1oBA1HIcaDu-99" vertex="1">
          <mxGeometry x="415.89471684236327" y="140.06804733727813" width="103.25096347143905" height="43.4319526627219" as="geometry" />
        </mxCell>
        <mxCell id="yPSDT-vUB1oBA1HIcaDu-20" style="edgeStyle=orthogonalEdgeStyle;shape=connector;curved=0;rounded=1;orthogonalLoop=1;jettySize=auto;html=1;labelBackgroundColor=default;strokeColor=#DB918D;strokeWidth=3;align=center;verticalAlign=middle;fontFamily=Helvetica;fontSize=12;fontColor=#FFFFFF;endArrow=openThin;endFill=0;fillColor=#FAE5C7;" parent="yPSDT-vUB1oBA1HIcaDu-99" source="yPSDT-vUB1oBA1HIcaDu-21" target="yPSDT-vUB1oBA1HIcaDu-23" edge="1">
          <mxGeometry relative="1" as="geometry">
            <mxPoint x="467.52019857808267" y="149.84023668639054" as="targetPoint" />
          </mxGeometry>
        </mxCell>
        <mxCell id="yPSDT-vUB1oBA1HIcaDu-24" value="&lt;font&gt;No&lt;/font&gt;" style="text;html=1;strokeColor=none;fillColor=none;align=center;verticalAlign=middle;whiteSpace=wrap;rounded=0;fontColor=#FFFFFF;container=0;" parent="yPSDT-vUB1oBA1HIcaDu-99" vertex="1">
          <mxGeometry x="264.9240120127482" y="154.18343195266274" width="61.50772248100023" height="32.57396449704142" as="geometry" />
        </mxCell>
        <mxCell id="yPSDT-vUB1oBA1HIcaDu-25" value="&lt;font&gt;Yes&lt;/font&gt;" style="text;html=1;strokeColor=none;fillColor=none;align=center;verticalAlign=middle;whiteSpace=wrap;rounded=0;fontColor=#FFFFFF;container=0;" parent="yPSDT-vUB1oBA1HIcaDu-99" vertex="1">
          <mxGeometry x="264.64722726158374" y="81.43491124260356" width="61.50772248100023" height="32.57396449704142" as="geometry" />
        </mxCell>
        <mxCell id="yPSDT-vUB1oBA1HIcaDu-26" value="&lt;font&gt;Yes&lt;/font&gt;" style="text;html=1;strokeColor=none;fillColor=none;align=center;verticalAlign=middle;whiteSpace=wrap;rounded=0;fontColor=#FFFFFF;container=0;" parent="yPSDT-vUB1oBA1HIcaDu-99" vertex="1">
          <mxGeometry x="415.89471684236327" y="44.51775147928994" width="61.50772248100023" height="32.57396449704142" as="geometry" />
        </mxCell>
        <mxCell id="yPSDT-vUB1oBA1HIcaDu-27" value="&lt;font&gt;No&lt;/font&gt;" style="text;html=1;strokeColor=none;fillColor=none;align=center;verticalAlign=middle;whiteSpace=wrap;rounded=0;fontColor=#FFFFFF;container=0;" parent="yPSDT-vUB1oBA1HIcaDu-99" vertex="1">
          <mxGeometry x="494.1735449865161" width="61.50772248100023" height="32.57396449704142" as="geometry" />
        </mxCell>
        <mxCell id="yPSDT-vUB1oBA1HIcaDu-100" value="" style="group" parent="yPSDT-vUB1oBA1HIcaDu-102" vertex="1" connectable="0">
          <mxGeometry x="687.9946298112282" y="289.36538461538464" width="650.0853701887717" height="261.1346153846154" as="geometry" />
        </mxCell>
        <mxCell id="yPSDT-vUB1oBA1HIcaDu-60" value="Is it &lt;br&gt;running?" style="rhombus;whiteSpace=wrap;html=1;rounded=0;strokeColor=#DB918D;strokeWidth=3;align=center;verticalAlign=middle;fontFamily=Helvetica;fontSize=11;fontColor=#FFFFFF;fillColor=none;spacingTop=-7;container=0;" parent="yPSDT-vUB1oBA1HIcaDu-100" vertex="1">
          <mxGeometry x="389.20036528560917" y="142.65224852071006" width="76.13630914439811" height="54.832840236686394" as="geometry" />
        </mxCell>
        <mxCell id="yPSDT-vUB1oBA1HIcaDu-62" value="Deserialize RestartOrder" style="rounded=1;whiteSpace=wrap;html=1;strokeColor=#DB918D;fontColor=#FFFFFF;fillColor=none;strokeWidth=3;container=0;" parent="yPSDT-vUB1oBA1HIcaDu-100" vertex="1">
          <mxGeometry x="87.13594018141698" y="6.514792899408285" width="123.01544496200046" height="42.346153846153854" as="geometry" />
        </mxCell>
        <mxCell id="yPSDT-vUB1oBA1HIcaDu-63" style="edgeStyle=orthogonalEdgeStyle;shape=connector;curved=0;rounded=1;orthogonalLoop=1;jettySize=auto;html=1;labelBackgroundColor=default;strokeColor=#DB918D;strokeWidth=3;align=center;verticalAlign=middle;fontFamily=Helvetica;fontSize=12;fontColor=#FFFFFF;endArrow=openThin;endFill=0;fillColor=#FAE5C7;" parent="yPSDT-vUB1oBA1HIcaDu-100" source="yPSDT-vUB1oBA1HIcaDu-64" target="yPSDT-vUB1oBA1HIcaDu-62" edge="1">
          <mxGeometry relative="1" as="geometry" />
        </mxCell>
        <mxCell id="yPSDT-vUB1oBA1HIcaDu-64" value="Start" style="ellipse;whiteSpace=wrap;html=1;aspect=fixed;strokeColor=#DB918D;fontColor=#FFFFFF;fillColor=none;strokeWidth=3;container=0;" parent="yPSDT-vUB1oBA1HIcaDu-100" vertex="1">
          <mxGeometry y="0.5428994082840237" width="51.256435400833524" height="51.256435400833524" as="geometry" />
        </mxCell>
        <mxCell id="yPSDT-vUB1oBA1HIcaDu-66" value="Get UUID" style="rounded=1;whiteSpace=wrap;html=1;strokeColor=#DB918D;fontColor=#FFFFFF;fillColor=none;strokeWidth=3;container=0;" parent="yPSDT-vUB1oBA1HIcaDu-100" vertex="1">
          <mxGeometry x="86.03905246383921" y="74.92011834319527" width="125.2194716842363" height="31.488165680473376" as="geometry" />
        </mxCell>
        <mxCell id="yPSDT-vUB1oBA1HIcaDu-61" style="edgeStyle=orthogonalEdgeStyle;shape=connector;curved=0;rounded=1;orthogonalLoop=1;jettySize=auto;html=1;labelBackgroundColor=default;strokeColor=#DB918D;strokeWidth=3;align=center;verticalAlign=middle;fontFamily=Helvetica;fontSize=12;fontColor=#FFFFFF;endArrow=openThin;endFill=0;fillColor=#FAE5C7;" parent="yPSDT-vUB1oBA1HIcaDu-100" source="yPSDT-vUB1oBA1HIcaDu-62" target="yPSDT-vUB1oBA1HIcaDu-66" edge="1">
          <mxGeometry relative="1" as="geometry" />
        </mxCell>
        <mxCell id="yPSDT-vUB1oBA1HIcaDu-69" value="Is UUID in the register?" style="rhombus;whiteSpace=wrap;html=1;rounded=0;strokeColor=#DB918D;strokeWidth=3;align=center;verticalAlign=middle;fontFamily=Helvetica;fontSize=11;fontColor=#FFFFFF;fillColor=none;spacingTop=5;container=0;" parent="yPSDT-vUB1oBA1HIcaDu-100" vertex="1">
          <mxGeometry x="93.66601005148318" y="148.4829881656805" width="109.96555650894824" height="71.66272189349112" as="geometry" />
        </mxCell>
        <mxCell id="yPSDT-vUB1oBA1HIcaDu-65" style="edgeStyle=orthogonalEdgeStyle;shape=connector;curved=0;rounded=1;orthogonalLoop=1;jettySize=auto;html=1;labelBackgroundColor=default;strokeColor=#DB918D;strokeWidth=3;align=center;verticalAlign=middle;fontFamily=Helvetica;fontSize=12;fontColor=#FFFFFF;endArrow=openThin;endFill=0;fillColor=#FAE5C7;" parent="yPSDT-vUB1oBA1HIcaDu-100" source="yPSDT-vUB1oBA1HIcaDu-66" target="yPSDT-vUB1oBA1HIcaDu-69" edge="1">
          <mxGeometry relative="1" as="geometry" />
        </mxCell>
        <mxCell id="yPSDT-vUB1oBA1HIcaDu-70" style="edgeStyle=orthogonalEdgeStyle;shape=connector;curved=0;rounded=1;orthogonalLoop=1;jettySize=auto;html=1;labelBackgroundColor=default;strokeColor=#DB918D;strokeWidth=3;align=center;verticalAlign=middle;fontFamily=Helvetica;fontSize=12;fontColor=#FFFFFF;endArrow=openThin;endFill=0;fillColor=#FAE5C7;entryX=0.5;entryY=1;entryDx=0;entryDy=0;" parent="yPSDT-vUB1oBA1HIcaDu-100" source="yPSDT-vUB1oBA1HIcaDu-71" target="yPSDT-vUB1oBA1HIcaDu-60" edge="1">
          <mxGeometry relative="1" as="geometry">
            <mxPoint x="458.01725545476836" y="186.75739644970417" as="targetPoint" />
            <Array as="points">
              <mxPoint x="426.8943478793821" y="247.5621301775148" />
            </Array>
          </mxGeometry>
        </mxCell>
        <mxCell id="yPSDT-vUB1oBA1HIcaDu-71" value="Get container Id" style="rounded=1;whiteSpace=wrap;html=1;strokeColor=#DB918D;fontColor=#FFFFFF;fillColor=none;strokeWidth=3;container=0;" parent="yPSDT-vUB1oBA1HIcaDu-100" vertex="1">
          <mxGeometry x="258.77836540818817" y="233.98964497041422" width="103.25096347143905" height="27.144970414201186" as="geometry" />
        </mxCell>
        <mxCell id="yPSDT-vUB1oBA1HIcaDu-68" style="edgeStyle=orthogonalEdgeStyle;shape=connector;curved=0;rounded=1;orthogonalLoop=1;jettySize=auto;html=1;exitX=0.5;exitY=1;exitDx=0;exitDy=0;entryX=0;entryY=0.5;entryDx=0;entryDy=0;labelBackgroundColor=default;strokeColor=#DB918D;strokeWidth=3;align=center;verticalAlign=middle;fontFamily=Helvetica;fontSize=12;fontColor=#FFFFFF;endArrow=openThin;endFill=0;fillColor=#FAE5C7;" parent="yPSDT-vUB1oBA1HIcaDu-100" source="yPSDT-vUB1oBA1HIcaDu-69" target="yPSDT-vUB1oBA1HIcaDu-71" edge="1">
          <mxGeometry relative="1" as="geometry" />
        </mxCell>
        <mxCell id="yPSDT-vUB1oBA1HIcaDu-72" value="End" style="ellipse;whiteSpace=wrap;html=1;aspect=fixed;strokeColor=#DB918D;fontColor=#FFFFFF;fillColor=none;strokeWidth=3;container=0;" parent="yPSDT-vUB1oBA1HIcaDu-100" vertex="1">
          <mxGeometry x="456.2437827898993" width="51.256435400833524" height="51.256435400833524" as="geometry" />
        </mxCell>
        <mxCell id="yPSDT-vUB1oBA1HIcaDu-74" value="Search for container in network using info from the QueryType" style="rounded=1;whiteSpace=wrap;html=1;strokeColor=#DB918D;fontColor=#FFFFFF;fillColor=none;strokeWidth=3;container=0;" parent="yPSDT-vUB1oBA1HIcaDu-100" vertex="1">
          <mxGeometry x="251.22829247364535" y="146.5828402366864" width="118.3511093405246" height="75.4630177514793" as="geometry" />
        </mxCell>
        <mxCell id="yPSDT-vUB1oBA1HIcaDu-67" style="edgeStyle=orthogonalEdgeStyle;shape=connector;curved=0;rounded=1;orthogonalLoop=1;jettySize=auto;html=1;labelBackgroundColor=default;strokeColor=#DB918D;strokeWidth=3;align=center;verticalAlign=middle;fontFamily=Helvetica;fontSize=12;fontColor=#FFFFFF;endArrow=openThin;endFill=0;fillColor=#FAE5C7;" parent="yPSDT-vUB1oBA1HIcaDu-100" source="yPSDT-vUB1oBA1HIcaDu-69" target="yPSDT-vUB1oBA1HIcaDu-74" edge="1">
          <mxGeometry relative="1" as="geometry" />
        </mxCell>
        <mxCell id="yPSDT-vUB1oBA1HIcaDu-76" value="Container &lt;br&gt;found?" style="rhombus;whiteSpace=wrap;html=1;rounded=0;strokeColor=#DB918D;strokeWidth=3;align=center;verticalAlign=middle;fontFamily=Helvetica;fontSize=11;fontColor=#FFFFFF;fillColor=none;spacingTop=4;container=0;" parent="yPSDT-vUB1oBA1HIcaDu-100" vertex="1">
          <mxGeometry x="267.2100490316254" y="69.49112426035504" width="86.38759622456482" height="54.832840236686394" as="geometry" />
        </mxCell>
        <mxCell id="yPSDT-vUB1oBA1HIcaDu-73" style="edgeStyle=orthogonalEdgeStyle;shape=connector;curved=0;rounded=1;orthogonalLoop=1;jettySize=auto;html=1;labelBackgroundColor=default;strokeColor=#DB918D;strokeWidth=3;align=center;verticalAlign=middle;fontFamily=Helvetica;fontSize=12;fontColor=#FFFFFF;endArrow=openThin;endFill=0;fillColor=#FAE5C7;" parent="yPSDT-vUB1oBA1HIcaDu-100" source="yPSDT-vUB1oBA1HIcaDu-74" target="yPSDT-vUB1oBA1HIcaDu-76" edge="1">
          <mxGeometry relative="1" as="geometry" />
        </mxCell>
        <mxCell id="yPSDT-vUB1oBA1HIcaDu-77" value="No" style="text;html=1;strokeColor=none;fillColor=none;align=center;verticalAlign=middle;whiteSpace=wrap;rounded=0;fontColor=#FFFFFF;container=0;" parent="yPSDT-vUB1oBA1HIcaDu-100" vertex="1">
          <mxGeometry x="183.4775361608237" y="148.7544378698225" width="61.50772248100023" height="32.57396449704142" as="geometry" />
        </mxCell>
        <mxCell id="yPSDT-vUB1oBA1HIcaDu-78" value="Yes" style="text;html=1;strokeColor=none;fillColor=none;align=center;verticalAlign=middle;whiteSpace=wrap;rounded=0;fontColor=#FFFFFF;container=0;" parent="yPSDT-vUB1oBA1HIcaDu-100" vertex="1">
          <mxGeometry x="149.64828879627356" y="209.01627218934914" width="33.82924736455013" height="32.57396449704142" as="geometry" />
        </mxCell>
        <mxCell id="yPSDT-vUB1oBA1HIcaDu-79" style="edgeStyle=orthogonalEdgeStyle;shape=connector;curved=0;rounded=1;orthogonalLoop=1;jettySize=auto;html=1;labelBackgroundColor=default;strokeColor=#DB918D;strokeWidth=3;align=center;verticalAlign=middle;fontFamily=Helvetica;fontSize=12;fontColor=#FFFFFF;endArrow=openThin;endFill=0;fillColor=#FAE5C7;" parent="yPSDT-vUB1oBA1HIcaDu-100" source="yPSDT-vUB1oBA1HIcaDu-80" target="yPSDT-vUB1oBA1HIcaDu-72" edge="1">
          <mxGeometry relative="1" as="geometry" />
        </mxCell>
        <mxCell id="yPSDT-vUB1oBA1HIcaDu-80" value="Return &lt;br&gt;404 Not Found&amp;nbsp;" style="rounded=1;whiteSpace=wrap;html=1;strokeColor=#DB918D;fontColor=#FFFFFF;fillColor=none;strokeWidth=3;container=0;" parent="yPSDT-vUB1oBA1HIcaDu-100" vertex="1">
          <mxGeometry x="258.78349105172833" y="5.428994082840237" width="103.25096347143905" height="43.4319526627219" as="geometry" />
        </mxCell>
        <mxCell id="yPSDT-vUB1oBA1HIcaDu-75" style="edgeStyle=orthogonalEdgeStyle;shape=connector;curved=0;rounded=1;orthogonalLoop=1;jettySize=auto;html=1;exitX=0.5;exitY=0;exitDx=0;exitDy=0;entryX=0.5;entryY=1;entryDx=0;entryDy=0;labelBackgroundColor=default;strokeColor=#DB918D;strokeWidth=3;align=center;verticalAlign=middle;fontFamily=Helvetica;fontSize=12;fontColor=#FFFFFF;endArrow=openThin;endFill=0;fillColor=#FAE5C7;" parent="yPSDT-vUB1oBA1HIcaDu-100" source="yPSDT-vUB1oBA1HIcaDu-76" target="yPSDT-vUB1oBA1HIcaDu-80" edge="1">
          <mxGeometry relative="1" as="geometry" />
        </mxCell>
        <mxCell id="yPSDT-vUB1oBA1HIcaDu-81" value="No" style="text;html=1;strokeColor=none;fillColor=none;align=center;verticalAlign=middle;whiteSpace=wrap;rounded=0;fontColor=#FFFFFF;container=0;" parent="yPSDT-vUB1oBA1HIcaDu-100" vertex="1">
          <mxGeometry x="315.15531870556504" y="48.86094674556213" width="29.451947781318943" height="32.57396449704142" as="geometry" />
        </mxCell>
        <mxCell id="yPSDT-vUB1oBA1HIcaDu-82" value="" style="edgeStyle=orthogonalEdgeStyle;shape=connector;curved=0;rounded=1;orthogonalLoop=1;jettySize=auto;html=1;labelBackgroundColor=default;strokeColor=#DB918D;strokeWidth=3;align=center;verticalAlign=middle;fontFamily=Helvetica;fontSize=12;fontColor=#FFFFFF;endArrow=openThin;endFill=0;fillColor=#FAE5C7;entryX=0;entryY=0.5;entryDx=0;entryDy=0;" parent="yPSDT-vUB1oBA1HIcaDu-100" source="yPSDT-vUB1oBA1HIcaDu-76" target="yPSDT-vUB1oBA1HIcaDu-84" edge="1">
          <mxGeometry relative="1" as="geometry">
            <mxPoint x="365.3866253983819" y="96.63609467455622" as="sourcePoint" />
            <mxPoint x="426.8943478793821" y="173.7278106508876" as="targetPoint" />
            <Array as="points" />
          </mxGeometry>
        </mxCell>
        <mxCell id="yPSDT-vUB1oBA1HIcaDu-83" style="edgeStyle=orthogonalEdgeStyle;shape=connector;curved=0;rounded=1;orthogonalLoop=1;jettySize=auto;html=1;exitX=0.5;exitY=1;exitDx=0;exitDy=0;entryX=0.5;entryY=0;entryDx=0;entryDy=0;labelBackgroundColor=default;strokeColor=#DB918D;strokeWidth=3;align=center;verticalAlign=middle;fontFamily=Helvetica;fontSize=12;fontColor=#FFFFFF;endArrow=openThin;endFill=0;fillColor=#FAE5C7;" parent="yPSDT-vUB1oBA1HIcaDu-100" source="yPSDT-vUB1oBA1HIcaDu-84" target="yPSDT-vUB1oBA1HIcaDu-60" edge="1">
          <mxGeometry relative="1" as="geometry" />
        </mxCell>
        <mxCell id="yPSDT-vUB1oBA1HIcaDu-84" value="Add container to the register" style="rounded=1;whiteSpace=wrap;html=1;strokeColor=#DB918D;fontColor=#FFFFFF;fillColor=none;strokeWidth=3;container=0;" parent="yPSDT-vUB1oBA1HIcaDu-100" vertex="1">
          <mxGeometry x="375.6379124785486" y="75.60417159763314" width="103.25096347143905" height="42.61760355029586" as="geometry" />
        </mxCell>
        <mxCell id="yPSDT-vUB1oBA1HIcaDu-86" value="Send start signal" style="rounded=1;whiteSpace=wrap;html=1;strokeColor=#DB918D;fontColor=#FFFFFF;fillColor=none;strokeWidth=3;container=0;" parent="yPSDT-vUB1oBA1HIcaDu-100" vertex="1">
          <mxGeometry x="523.2564464329491" y="197.48508875739645" width="62.532851189016895" height="42.61760355029586" as="geometry" />
        </mxCell>
        <mxCell id="yPSDT-vUB1oBA1HIcaDu-58" value="" style="edgeStyle=orthogonalEdgeStyle;shape=connector;curved=0;rounded=1;orthogonalLoop=1;jettySize=auto;html=1;labelBackgroundColor=default;strokeColor=#DB918D;strokeWidth=3;align=center;verticalAlign=middle;fontFamily=Helvetica;fontSize=12;fontColor=#FFFFFF;endArrow=openThin;endFill=0;fillColor=#FAE5C7;exitX=1;exitY=0.5;exitDx=0;exitDy=0;" parent="yPSDT-vUB1oBA1HIcaDu-100" source="yPSDT-vUB1oBA1HIcaDu-60" target="yPSDT-vUB1oBA1HIcaDu-86" edge="1">
          <mxGeometry relative="1" as="geometry">
            <mxPoint x="515.0554167688158" y="219.33136094674558" as="targetPoint" />
            <Array as="points">
              <mxPoint x="483.27642682029904" y="170.47041420118344" />
              <mxPoint x="483.27642682029904" y="219.33136094674558" />
            </Array>
          </mxGeometry>
        </mxCell>
        <mxCell id="yPSDT-vUB1oBA1HIcaDu-88" value="Send restart signal" style="rounded=1;whiteSpace=wrap;html=1;strokeColor=#DB918D;fontColor=#FFFFFF;fillColor=none;strokeWidth=3;container=0;" parent="yPSDT-vUB1oBA1HIcaDu-100" vertex="1">
          <mxGeometry x="515.0554167688158" y="148.7544378698225" width="78.93491051728363" height="42.61760355029586" as="geometry" />
        </mxCell>
        <mxCell id="yPSDT-vUB1oBA1HIcaDu-59" style="edgeStyle=orthogonalEdgeStyle;shape=connector;curved=0;rounded=1;orthogonalLoop=1;jettySize=auto;html=1;exitX=1;exitY=0.5;exitDx=0;exitDy=0;entryX=0;entryY=0.5;entryDx=0;entryDy=0;labelBackgroundColor=default;strokeColor=#DB918D;strokeWidth=3;align=center;verticalAlign=middle;fontFamily=Helvetica;fontSize=12;fontColor=#FFFFFF;endArrow=openThin;endFill=0;fillColor=#FAE5C7;" parent="yPSDT-vUB1oBA1HIcaDu-100" source="yPSDT-vUB1oBA1HIcaDu-60" target="yPSDT-vUB1oBA1HIcaDu-88" edge="1">
          <mxGeometry relative="1" as="geometry" />
        </mxCell>
        <mxCell id="yPSDT-vUB1oBA1HIcaDu-89" style="edgeStyle=orthogonalEdgeStyle;shape=connector;curved=0;rounded=1;orthogonalLoop=1;jettySize=auto;html=1;entryX=1;entryY=0.5;entryDx=0;entryDy=0;labelBackgroundColor=default;strokeColor=#DB918D;strokeWidth=3;align=center;verticalAlign=middle;fontFamily=Helvetica;fontSize=12;fontColor=#FFFFFF;endArrow=openThin;endFill=0;fillColor=#FAE5C7;exitX=0.5;exitY=0;exitDx=0;exitDy=0;" parent="yPSDT-vUB1oBA1HIcaDu-100" source="yPSDT-vUB1oBA1HIcaDu-90" target="yPSDT-vUB1oBA1HIcaDu-72" edge="1">
          <mxGeometry relative="1" as="geometry" />
        </mxCell>
        <mxCell id="yPSDT-vUB1oBA1HIcaDu-90" value="Return &lt;br&gt;200 OK" style="rounded=1;whiteSpace=wrap;html=1;strokeColor=#DB918D;fontColor=#FFFFFF;fillColor=none;strokeWidth=3;container=0;" parent="yPSDT-vUB1oBA1HIcaDu-100" vertex="1">
          <mxGeometry x="546.8344067173326" y="60.80473372781066" width="103.25096347143905" height="43.4319526627219" as="geometry" />
        </mxCell>
        <mxCell id="yPSDT-vUB1oBA1HIcaDu-85" style="edgeStyle=orthogonalEdgeStyle;shape=connector;curved=0;rounded=1;orthogonalLoop=1;jettySize=auto;html=1;exitX=1;exitY=0.5;exitDx=0;exitDy=0;entryX=0.5;entryY=1;entryDx=0;entryDy=0;labelBackgroundColor=default;strokeColor=#DB918D;strokeWidth=3;align=center;verticalAlign=middle;fontFamily=Helvetica;fontSize=12;fontColor=#FFFFFF;endArrow=openThin;endFill=0;fillColor=#FAE5C7;" parent="yPSDT-vUB1oBA1HIcaDu-100" source="yPSDT-vUB1oBA1HIcaDu-86" target="yPSDT-vUB1oBA1HIcaDu-90" edge="1">
          <mxGeometry relative="1" as="geometry">
            <Array as="points">
              <mxPoint x="585.789297621966" y="220.41715976331363" />
              <mxPoint x="617.5682875704829" y="220.41715976331363" />
              <mxPoint x="617.5682875704829" y="124.86686390532546" />
              <mxPoint x="598.090842118166" y="124.86686390532546" />
            </Array>
          </mxGeometry>
        </mxCell>
        <mxCell id="yPSDT-vUB1oBA1HIcaDu-87" style="edgeStyle=orthogonalEdgeStyle;shape=connector;curved=0;rounded=1;orthogonalLoop=1;jettySize=auto;html=1;entryX=0.5;entryY=1;entryDx=0;entryDy=0;labelBackgroundColor=default;strokeColor=#DB918D;strokeWidth=3;align=center;verticalAlign=middle;fontFamily=Helvetica;fontSize=12;fontColor=#FFFFFF;endArrow=openThin;endFill=0;fillColor=#FAE5C7;exitX=0.5;exitY=0;exitDx=0;exitDy=0;" parent="yPSDT-vUB1oBA1HIcaDu-100" source="yPSDT-vUB1oBA1HIcaDu-88" target="yPSDT-vUB1oBA1HIcaDu-90" edge="1">
          <mxGeometry relative="1" as="geometry">
            <Array as="points">
              <mxPoint x="555.035436381466" y="124.86686390532546" />
              <mxPoint x="598.090842118166" y="124.86686390532546" />
            </Array>
          </mxGeometry>
        </mxCell>
        <mxCell id="yPSDT-vUB1oBA1HIcaDu-91" value="No" style="text;html=1;strokeColor=none;fillColor=none;align=center;verticalAlign=middle;whiteSpace=wrap;rounded=0;fontColor=#FFFFFF;container=0;" parent="yPSDT-vUB1oBA1HIcaDu-100" vertex="1">
          <mxGeometry x="469.9497536160823" y="194.3579881656805" width="61.50772248100023" height="32.57396449704142" as="geometry" />
        </mxCell>
        <mxCell id="yPSDT-vUB1oBA1HIcaDu-92" value="Yes" style="text;html=1;strokeColor=none;fillColor=none;align=center;verticalAlign=middle;whiteSpace=wrap;rounded=0;fontColor=#FFFFFF;container=0;" parent="yPSDT-vUB1oBA1HIcaDu-100" vertex="1">
          <mxGeometry x="465.3366744300073" y="142.65224852071006" width="61.50772248100023" height="32.57396449704142" as="geometry" />
        </mxCell>
        <mxCell id="yPSDT-vUB1oBA1HIcaDu-101" value="" style="group" parent="yPSDT-vUB1oBA1HIcaDu-102" vertex="1" connectable="0">
          <mxGeometry y="289.36538461538464" width="653.4477923510661" height="261.1346153846154" as="geometry" />
        </mxCell>
        <mxCell id="yPSDT-vUB1oBA1HIcaDu-29" value="Deserialize RestartOrder" style="rounded=1;whiteSpace=wrap;html=1;strokeColor=#DB918D;fontColor=#FFFFFF;fillColor=none;strokeWidth=3;container=0;" parent="yPSDT-vUB1oBA1HIcaDu-101" vertex="1">
          <mxGeometry x="87.13594018141698" y="6.514792899408285" width="123.01544496200046" height="42.346153846153854" as="geometry" />
        </mxCell>
        <mxCell id="yPSDT-vUB1oBA1HIcaDu-30" style="edgeStyle=orthogonalEdgeStyle;shape=connector;curved=0;rounded=1;orthogonalLoop=1;jettySize=auto;html=1;labelBackgroundColor=default;strokeColor=#DB918D;strokeWidth=3;align=center;verticalAlign=middle;fontFamily=Helvetica;fontSize=12;fontColor=#FFFFFF;endArrow=openThin;endFill=0;fillColor=#FAE5C7;" parent="yPSDT-vUB1oBA1HIcaDu-101" source="yPSDT-vUB1oBA1HIcaDu-31" target="yPSDT-vUB1oBA1HIcaDu-29" edge="1">
          <mxGeometry relative="1" as="geometry" />
        </mxCell>
        <mxCell id="yPSDT-vUB1oBA1HIcaDu-31" value="Start" style="ellipse;whiteSpace=wrap;html=1;aspect=fixed;strokeColor=#DB918D;fontColor=#FFFFFF;fillColor=none;strokeWidth=3;container=0;" parent="yPSDT-vUB1oBA1HIcaDu-101" vertex="1">
          <mxGeometry y="0.5428994082840237" width="51.256435400833524" height="51.256435400833524" as="geometry" />
        </mxCell>
        <mxCell id="yPSDT-vUB1oBA1HIcaDu-33" value="Get UUID" style="rounded=1;whiteSpace=wrap;html=1;strokeColor=#DB918D;fontColor=#FFFFFF;fillColor=none;strokeWidth=3;container=0;" parent="yPSDT-vUB1oBA1HIcaDu-101" vertex="1">
          <mxGeometry x="86.03905246383916" y="74.92011834319527" width="125.2194716842363" height="31.488165680473376" as="geometry" />
        </mxCell>
        <mxCell id="yPSDT-vUB1oBA1HIcaDu-28" style="edgeStyle=orthogonalEdgeStyle;shape=connector;curved=0;rounded=1;orthogonalLoop=1;jettySize=auto;html=1;labelBackgroundColor=default;strokeColor=#DB918D;strokeWidth=3;align=center;verticalAlign=middle;fontFamily=Helvetica;fontSize=12;fontColor=#FFFFFF;endArrow=openThin;endFill=0;fillColor=#FAE5C7;" parent="yPSDT-vUB1oBA1HIcaDu-101" source="yPSDT-vUB1oBA1HIcaDu-29" target="yPSDT-vUB1oBA1HIcaDu-33" edge="1">
          <mxGeometry relative="1" as="geometry" />
        </mxCell>
        <mxCell id="yPSDT-vUB1oBA1HIcaDu-36" value="Is UUID in the register?" style="rhombus;whiteSpace=wrap;html=1;rounded=0;strokeColor=#DB918D;strokeWidth=3;align=center;verticalAlign=middle;fontFamily=Helvetica;fontSize=11;fontColor=#FFFFFF;fillColor=none;spacingTop=5;container=0;" parent="yPSDT-vUB1oBA1HIcaDu-101" vertex="1">
          <mxGeometry x="93.66601005148318" y="148.4829881656805" width="109.96555650894824" height="71.66272189349112" as="geometry" />
        </mxCell>
        <mxCell id="yPSDT-vUB1oBA1HIcaDu-32" style="edgeStyle=orthogonalEdgeStyle;shape=connector;curved=0;rounded=1;orthogonalLoop=1;jettySize=auto;html=1;labelBackgroundColor=default;strokeColor=#DB918D;strokeWidth=3;align=center;verticalAlign=middle;fontFamily=Helvetica;fontSize=12;fontColor=#FFFFFF;endArrow=openThin;endFill=0;fillColor=#FAE5C7;" parent="yPSDT-vUB1oBA1HIcaDu-101" source="yPSDT-vUB1oBA1HIcaDu-33" target="yPSDT-vUB1oBA1HIcaDu-36" edge="1">
          <mxGeometry relative="1" as="geometry" />
        </mxCell>
        <mxCell id="yPSDT-vUB1oBA1HIcaDu-38" value="Get container Id" style="rounded=1;whiteSpace=wrap;html=1;strokeColor=#DB918D;fontColor=#FFFFFF;fillColor=none;strokeWidth=3;container=0;" parent="yPSDT-vUB1oBA1HIcaDu-101" vertex="1">
          <mxGeometry x="258.7783654081882" y="233.98964497041422" width="103.25096347143905" height="27.144970414201186" as="geometry" />
        </mxCell>
        <mxCell id="yPSDT-vUB1oBA1HIcaDu-35" style="edgeStyle=orthogonalEdgeStyle;shape=connector;curved=0;rounded=1;orthogonalLoop=1;jettySize=auto;html=1;exitX=0.5;exitY=1;exitDx=0;exitDy=0;entryX=0;entryY=0.5;entryDx=0;entryDy=0;labelBackgroundColor=default;strokeColor=#DB918D;strokeWidth=3;align=center;verticalAlign=middle;fontFamily=Helvetica;fontSize=12;fontColor=#FFFFFF;endArrow=openThin;endFill=0;fillColor=#FAE5C7;" parent="yPSDT-vUB1oBA1HIcaDu-101" source="yPSDT-vUB1oBA1HIcaDu-36" target="yPSDT-vUB1oBA1HIcaDu-38" edge="1">
          <mxGeometry relative="1" as="geometry" />
        </mxCell>
        <mxCell id="yPSDT-vUB1oBA1HIcaDu-39" value="End" style="ellipse;whiteSpace=wrap;html=1;aspect=fixed;strokeColor=#DB918D;fontColor=#FFFFFF;fillColor=none;strokeWidth=3;container=0;" parent="yPSDT-vUB1oBA1HIcaDu-101" vertex="1">
          <mxGeometry x="456.2437827898993" width="51.256435400833524" height="51.256435400833524" as="geometry" />
        </mxCell>
        <mxCell id="yPSDT-vUB1oBA1HIcaDu-41" value="Search for container in network using info from the QueryType" style="rounded=1;whiteSpace=wrap;html=1;strokeColor=#DB918D;fontColor=#FFFFFF;fillColor=none;strokeWidth=3;container=0;" parent="yPSDT-vUB1oBA1HIcaDu-101" vertex="1">
          <mxGeometry x="251.2282924736454" y="146.5828402366864" width="118.3511093405246" height="75.4630177514793" as="geometry" />
        </mxCell>
        <mxCell id="yPSDT-vUB1oBA1HIcaDu-34" style="edgeStyle=orthogonalEdgeStyle;shape=connector;curved=0;rounded=1;orthogonalLoop=1;jettySize=auto;html=1;labelBackgroundColor=default;strokeColor=#DB918D;strokeWidth=3;align=center;verticalAlign=middle;fontFamily=Helvetica;fontSize=12;fontColor=#FFFFFF;endArrow=openThin;endFill=0;fillColor=#FAE5C7;" parent="yPSDT-vUB1oBA1HIcaDu-101" source="yPSDT-vUB1oBA1HIcaDu-36" target="yPSDT-vUB1oBA1HIcaDu-41" edge="1">
          <mxGeometry relative="1" as="geometry" />
        </mxCell>
        <mxCell id="yPSDT-vUB1oBA1HIcaDu-43" value="Container &lt;br&gt;found?" style="rhombus;whiteSpace=wrap;html=1;rounded=0;strokeColor=#DB918D;strokeWidth=3;align=center;verticalAlign=middle;fontFamily=Helvetica;fontSize=11;fontColor=#FFFFFF;fillColor=none;spacingTop=4;container=0;" parent="yPSDT-vUB1oBA1HIcaDu-101" vertex="1">
          <mxGeometry x="267.2100490316253" y="69.49112426035504" width="86.38759622456482" height="54.832840236686394" as="geometry" />
        </mxCell>
        <mxCell id="yPSDT-vUB1oBA1HIcaDu-40" style="edgeStyle=orthogonalEdgeStyle;shape=connector;curved=0;rounded=1;orthogonalLoop=1;jettySize=auto;html=1;labelBackgroundColor=default;strokeColor=#DB918D;strokeWidth=3;align=center;verticalAlign=middle;fontFamily=Helvetica;fontSize=12;fontColor=#FFFFFF;endArrow=openThin;endFill=0;fillColor=#FAE5C7;" parent="yPSDT-vUB1oBA1HIcaDu-101" source="yPSDT-vUB1oBA1HIcaDu-41" target="yPSDT-vUB1oBA1HIcaDu-43" edge="1">
          <mxGeometry relative="1" as="geometry" />
        </mxCell>
        <mxCell id="yPSDT-vUB1oBA1HIcaDu-44" value="No" style="text;html=1;strokeColor=none;fillColor=none;align=center;verticalAlign=middle;whiteSpace=wrap;rounded=0;fontColor=#FFFFFF;container=0;" parent="yPSDT-vUB1oBA1HIcaDu-101" vertex="1">
          <mxGeometry x="183.4775361608237" y="148.7544378698225" width="61.50772248100023" height="32.57396449704142" as="geometry" />
        </mxCell>
        <mxCell id="yPSDT-vUB1oBA1HIcaDu-45" value="Yes" style="text;html=1;strokeColor=none;fillColor=none;align=center;verticalAlign=middle;whiteSpace=wrap;rounded=0;fontColor=#FFFFFF;container=0;" parent="yPSDT-vUB1oBA1HIcaDu-101" vertex="1">
          <mxGeometry x="149.64828879627356" y="209.01627218934914" width="33.82924736455013" height="32.57396449704142" as="geometry" />
        </mxCell>
        <mxCell id="yPSDT-vUB1oBA1HIcaDu-46" style="edgeStyle=orthogonalEdgeStyle;shape=connector;curved=0;rounded=1;orthogonalLoop=1;jettySize=auto;html=1;labelBackgroundColor=default;strokeColor=#DB918D;strokeWidth=3;align=center;verticalAlign=middle;fontFamily=Helvetica;fontSize=12;fontColor=#FFFFFF;endArrow=openThin;endFill=0;fillColor=#FAE5C7;" parent="yPSDT-vUB1oBA1HIcaDu-101" source="yPSDT-vUB1oBA1HIcaDu-47" target="yPSDT-vUB1oBA1HIcaDu-39" edge="1">
          <mxGeometry relative="1" as="geometry" />
        </mxCell>
        <mxCell id="yPSDT-vUB1oBA1HIcaDu-47" value="Return &lt;br&gt;404 Not Found&amp;nbsp;" style="rounded=1;whiteSpace=wrap;html=1;strokeColor=#DB918D;fontColor=#FFFFFF;fillColor=none;strokeWidth=3;container=0;" parent="yPSDT-vUB1oBA1HIcaDu-101" vertex="1">
          <mxGeometry x="258.7834910517283" y="5.428994082840237" width="103.25096347143905" height="43.4319526627219" as="geometry" />
        </mxCell>
        <mxCell id="yPSDT-vUB1oBA1HIcaDu-42" style="edgeStyle=orthogonalEdgeStyle;shape=connector;curved=0;rounded=1;orthogonalLoop=1;jettySize=auto;html=1;exitX=0.5;exitY=0;exitDx=0;exitDy=0;entryX=0.5;entryY=1;entryDx=0;entryDy=0;labelBackgroundColor=default;strokeColor=#DB918D;strokeWidth=3;align=center;verticalAlign=middle;fontFamily=Helvetica;fontSize=12;fontColor=#FFFFFF;endArrow=openThin;endFill=0;fillColor=#FAE5C7;" parent="yPSDT-vUB1oBA1HIcaDu-101" source="yPSDT-vUB1oBA1HIcaDu-43" target="yPSDT-vUB1oBA1HIcaDu-47" edge="1">
          <mxGeometry relative="1" as="geometry" />
        </mxCell>
        <mxCell id="yPSDT-vUB1oBA1HIcaDu-48" value="No" style="text;html=1;strokeColor=none;fillColor=none;align=center;verticalAlign=middle;whiteSpace=wrap;rounded=0;fontColor=#FFFFFF;container=0;" parent="yPSDT-vUB1oBA1HIcaDu-101" vertex="1">
          <mxGeometry x="315.155318705565" y="48.86094674556213" width="29.451947781318943" height="32.57396449704142" as="geometry" />
        </mxCell>
        <mxCell id="yPSDT-vUB1oBA1HIcaDu-49" value="" style="edgeStyle=orthogonalEdgeStyle;shape=connector;curved=0;rounded=1;orthogonalLoop=1;jettySize=auto;html=1;labelBackgroundColor=default;strokeColor=#DB918D;strokeWidth=3;align=center;verticalAlign=middle;fontFamily=Helvetica;fontSize=12;fontColor=#FFFFFF;endArrow=openThin;endFill=0;fillColor=#FAE5C7;entryX=0;entryY=0.5;entryDx=0;entryDy=0;" parent="yPSDT-vUB1oBA1HIcaDu-101" source="yPSDT-vUB1oBA1HIcaDu-43" target="yPSDT-vUB1oBA1HIcaDu-51" edge="1">
          <mxGeometry relative="1" as="geometry">
            <mxPoint x="365.38662539838185" y="96.63609467455622" as="sourcePoint" />
            <mxPoint x="426.894347879382" y="173.7278106508876" as="targetPoint" />
            <Array as="points" />
          </mxGeometry>
        </mxCell>
        <mxCell id="yPSDT-vUB1oBA1HIcaDu-51" value="Add container to the register" style="rounded=1;whiteSpace=wrap;html=1;strokeColor=#DB918D;fontColor=#FFFFFF;fillColor=none;strokeWidth=3;container=0;" parent="yPSDT-vUB1oBA1HIcaDu-101" vertex="1">
          <mxGeometry x="403.45990561412094" y="74.92011834319527" width="103.25096347143905" height="42.61760355029586" as="geometry" />
        </mxCell>
        <mxCell id="yPSDT-vUB1oBA1HIcaDu-52" style="edgeStyle=orthogonalEdgeStyle;shape=connector;curved=0;rounded=1;orthogonalLoop=1;jettySize=auto;html=1;entryX=1;entryY=0.5;entryDx=0;entryDy=0;labelBackgroundColor=default;strokeColor=#DB918D;strokeWidth=3;align=center;verticalAlign=middle;fontFamily=Helvetica;fontSize=12;fontColor=#FFFFFF;endArrow=openThin;endFill=0;fillColor=#FAE5C7;exitX=0.5;exitY=0;exitDx=0;exitDy=0;" parent="yPSDT-vUB1oBA1HIcaDu-101" source="yPSDT-vUB1oBA1HIcaDu-57" target="yPSDT-vUB1oBA1HIcaDu-39" edge="1">
          <mxGeometry relative="1" as="geometry" />
        </mxCell>
        <mxCell id="yPSDT-vUB1oBA1HIcaDu-53" value="Send request to endpoint" style="rounded=1;whiteSpace=wrap;html=1;strokeColor=#DB918D;fontColor=#FFFFFF;fillColor=none;strokeWidth=3;container=0;" parent="yPSDT-vUB1oBA1HIcaDu-101" vertex="1">
          <mxGeometry x="545.8092780093158" y="162.5983727810651" width="103.25096347143905" height="43.4319526627219" as="geometry" />
        </mxCell>
        <mxCell id="yPSDT-vUB1oBA1HIcaDu-54" style="edgeStyle=orthogonalEdgeStyle;shape=connector;curved=0;rounded=1;orthogonalLoop=1;jettySize=auto;html=1;labelBackgroundColor=default;strokeColor=#DB918D;strokeWidth=3;align=center;verticalAlign=middle;fontFamily=Helvetica;fontSize=12;fontColor=#FFFFFF;endArrow=openThin;endFill=0;fillColor=#FAE5C7;" parent="yPSDT-vUB1oBA1HIcaDu-101" source="yPSDT-vUB1oBA1HIcaDu-55" target="yPSDT-vUB1oBA1HIcaDu-53" edge="1">
          <mxGeometry relative="1" as="geometry" />
        </mxCell>
        <mxCell id="yPSDT-vUB1oBA1HIcaDu-55" value="Build request from ReconfigureType info" style="rounded=1;whiteSpace=wrap;html=1;strokeColor=#DB918D;fontColor=#FFFFFF;fillColor=none;strokeWidth=3;container=0;" parent="yPSDT-vUB1oBA1HIcaDu-101" vertex="1">
          <mxGeometry x="386.9143282667319" y="162.5983727810651" width="136.34211816621718" height="43.4319526627219" as="geometry" />
        </mxCell>
        <mxCell id="yPSDT-vUB1oBA1HIcaDu-37" style="edgeStyle=orthogonalEdgeStyle;shape=connector;curved=0;rounded=1;orthogonalLoop=1;jettySize=auto;html=1;labelBackgroundColor=default;strokeColor=#DB918D;strokeWidth=3;align=center;verticalAlign=middle;fontFamily=Helvetica;fontSize=12;fontColor=#FFFFFF;endArrow=openThin;endFill=0;fillColor=#FAE5C7;entryX=0.5;entryY=1;entryDx=0;entryDy=0;" parent="yPSDT-vUB1oBA1HIcaDu-101" source="yPSDT-vUB1oBA1HIcaDu-38" target="yPSDT-vUB1oBA1HIcaDu-55" edge="1">
          <mxGeometry relative="1" as="geometry">
            <mxPoint x="427.26851985780786" y="197.4850887573966" as="targetPoint" />
            <Array as="points">
              <mxPoint x="455.5979517038488" y="247.5621301775148" />
              <mxPoint x="455.5979517038488" y="190.0147928994083" />
            </Array>
          </mxGeometry>
        </mxCell>
        <mxCell id="yPSDT-vUB1oBA1HIcaDu-50" style="edgeStyle=orthogonalEdgeStyle;shape=connector;curved=0;rounded=1;orthogonalLoop=1;jettySize=auto;html=1;exitX=0.5;exitY=1;exitDx=0;exitDy=0;labelBackgroundColor=default;strokeColor=#DB918D;strokeWidth=3;align=center;verticalAlign=middle;fontFamily=Helvetica;fontSize=12;fontColor=#FFFFFF;endArrow=openThin;endFill=0;fillColor=#FAE5C7;" parent="yPSDT-vUB1oBA1HIcaDu-101" source="yPSDT-vUB1oBA1HIcaDu-51" target="yPSDT-vUB1oBA1HIcaDu-55" edge="1">
          <mxGeometry relative="1" as="geometry">
            <mxPoint x="427.26851985780786" y="142.6522485207102" as="targetPoint" />
          </mxGeometry>
        </mxCell>
        <mxCell id="yPSDT-vUB1oBA1HIcaDu-56" value="" style="edgeStyle=orthogonalEdgeStyle;shape=connector;curved=0;rounded=1;orthogonalLoop=1;jettySize=auto;html=1;labelBackgroundColor=default;strokeColor=#DB918D;strokeWidth=3;align=center;verticalAlign=middle;fontFamily=Helvetica;fontSize=12;fontColor=#FFFFFF;endArrow=openThin;endFill=0;fillColor=#FAE5C7;exitX=0.5;exitY=0;exitDx=0;exitDy=0;" parent="yPSDT-vUB1oBA1HIcaDu-101" source="yPSDT-vUB1oBA1HIcaDu-53" target="yPSDT-vUB1oBA1HIcaDu-57" edge="1">
          <mxGeometry relative="1" as="geometry">
            <mxPoint x="597.0657134101493" y="162.86982248520712" as="sourcePoint" />
            <mxPoint x="507.87951581269897" y="27.144970414201186" as="targetPoint" />
          </mxGeometry>
        </mxCell>
        <mxCell id="yPSDT-vUB1oBA1HIcaDu-57" value="Return code from the request" style="rounded=1;whiteSpace=wrap;html=1;strokeColor=#DB918D;fontColor=#FFFFFF;fillColor=none;strokeWidth=3;container=0;" parent="yPSDT-vUB1oBA1HIcaDu-101" vertex="1">
          <mxGeometry x="539.6585057612158" y="62.97633136094675" width="113.78928658985042" height="43.4319526627219" as="geometry" />
        </mxCell>
      </root>
    </mxGraphModel>
  </diagram>
</mxfile>
